<?xml version="1.0" encoding="UTF-8"?><svg id="Layer_1" xmlns="http://www.w3.org/2000/svg" viewBox="0 0 400 200"><defs><style>.cls-1{fill:#00abc7;}.cls-2{fill:#55565b;}</style></defs><g><path class="cls-2" d="M176.44,134.11c.21,3.73-1.38,7.33-4.35,9.61-3.11,2.21-6.91,3.32-10.71,3.11-6.15,0-12.1-2.07-16.87-5.94l4.77-7.33c4.29,3.11,8.43,4.7,12.37,4.7,3.11,0,4.7-.97,4.7-2.9v-.21c0-1.11-.83-2-2.42-2.7-.55-.28-2.49-.83-5.74-1.87-7.81-2.28-11.75-6.22-11.75-11.82v-.14c-.14-3.59,1.45-6.98,4.29-9.26,2.9-2.21,6.5-3.39,10.09-3.25,5.25,0,10.37,1.59,14.65,4.56l-4.29,7.67c-4.15-2.42-7.67-3.66-10.65-3.66-2.76,0-4.08,.9-4.08,2.7v.14c0,.97,.83,1.87,2.42,2.63,.62,.28,2.49,.97,5.6,2.07,2.83,.83,5.53,2.14,8.02,3.8,2.49,1.87,3.94,4.77,3.87,7.88v.21h.07Z"/><path class="cls-2" d="M203.53,147.04c-1.52,4.08-3.18,6.91-5.05,8.5-2.21,1.73-5.05,2.63-7.88,2.49-3.46,0-6.91-.9-9.88-2.7l3.73-8.09c1.45,.97,3.04,1.45,4.77,1.52,1.73,.07,3.25-.97,3.87-2.56l-15.41-39.47h11.82l8.92,26.75,8.57-26.75h11.61l-15.07,40.3Z"/><path class="cls-2" d="M250.06,134.11c.21,3.73-1.38,7.33-4.35,9.61-3.11,2.21-6.91,3.32-10.71,3.11-6.15,0-12.1-2.07-16.87-5.94l4.77-7.33c4.29,3.11,8.43,4.7,12.37,4.7,3.11,0,4.7-.97,4.7-2.9v-.21c0-1.11-.83-2-2.42-2.7-.55-.28-2.49-.83-5.74-1.87-7.81-2.28-11.75-6.22-11.75-11.82v-.14c-.14-3.59,1.45-6.98,4.29-9.26,2.9-2.21,6.5-3.39,10.09-3.25,5.25,0,10.37,1.59,14.65,4.56l-4.29,7.67c-4.15-2.42-7.67-3.66-10.65-3.66-2.76,0-4.08,.9-4.08,2.7v.14c0,.97,.83,1.87,2.42,2.63,.62,.28,2.49,.97,5.6,2.07,2.83,.83,5.53,2.14,8.02,3.8,2.49,1.87,3.94,4.77,3.87,7.88l.07,.21Z"/><path class="cls-2" d="M284.06,146.07v-3.46c-3.39,2.9-7.81,4.35-12.24,4.15-4.7,.07-9.19-1.8-12.37-5.18-3.66-3.8-5.53-8.85-5.53-15.14v-.14c0-6.29,1.8-11.27,5.46-15.14,3.25-3.39,7.74-5.32,12.44-5.18,4.35-.14,8.71,1.11,12.24,3.66v-17.14h11.13v53.57h-11.13Zm.14-19.7c.14-2.9-.9-5.67-2.76-7.88-1.66-1.94-4.15-3.04-6.77-3.04-2.56-.07-5.05,1.04-6.77,2.9-1.94,2.14-2.97,4.98-2.83,7.95v.14c-.14,2.9,.9,5.74,2.83,7.88,3.32,3.73,9.12,4.01,12.79,.69,.21-.21,.48-.41,.69-.69,1.87-2.14,2.9-4.98,2.76-7.88v-.07h.07Z"/><path class="cls-2" d="M301.97,102.46v-9.88h11.75v9.88h-11.75Zm.28,43.62v-39.33h11.13v39.33h-11.13Z"/><path class="cls-2" d="M361.48,137.23c0,7.26-1.87,12.58-5.53,15.9-3.53,3.25-8.99,4.84-16.45,4.84-6.01,.07-12.03-1.31-17.42-4.08l3.8-9.12c4.01,2.35,8.64,3.59,13.27,3.59,7.47,0,11.2-3.11,11.2-9.26v-.41c-3.66,2.83-8.23,4.29-12.86,4.15-4.56,.14-8.92-1.59-12.17-4.77-3.59-3.59-5.53-8.5-5.25-13.55v-.14c-.21-5.05,1.73-10.02,5.32-13.55,3.25-3.18,7.6-4.91,12.1-4.77,4.49-.14,8.92,1.18,12.72,3.66v-2.9h11.13v30.41h.14Zm-10.99-12.86c.07-2.49-.97-4.84-2.76-6.5-3.87-3.46-9.75-3.46-13.62,0-1.8,1.66-2.76,4.08-2.7,6.5v.14c-.07,2.49,.9,4.91,2.7,6.64,1.87,1.66,4.29,2.56,6.84,2.49,2.56,.07,4.98-.83,6.84-2.56,1.87-1.66,2.83-4.08,2.76-6.5l-.07-.21Z"/></g><g><path class="cls-1" d="M97.7,145.87c-10.3,.14-19.77-5.46-24.75-14.45-2.21-3.8-7.81-13.76-8.09-14.31-1.04-1.8-.35-4.15,1.45-5.18s4.15-.35,5.18,1.45h0c.07,.14,5.88,10.44,8.02,14.17,5.32,9.26,15.14,12.79,26.13,9.47,2-.62,4.15,.55,4.7,2.56,.62,2-.55,4.15-2.56,4.7-3.25,1.04-6.64,1.59-10.09,1.59Z"/><g><path class="cls-1" d="M98.53,157.89c-14.45,0-27.93-6.77-34.7-18.53l-15.48-26.82c-1.04-1.8-.41-4.15,1.38-5.18h0l10.58-6.08c1.8-1.04,4.15-.41,5.18,1.38s.41,4.15-1.38,5.18h0l-7.26,4.22,13.55,23.57c7.4,12.79,24.88,18.11,40.99,12.58,12.86-11.13,17-29.03,9.61-41.82l-13-22.53c-1.04-1.8-.41-4.15,1.38-5.18s4.15-.41,5.18,1.38h0l13,22.53c9.26,16.11,4.22,38.36-11.82,51.84-.35,.28-.69,.48-1.18,.69-5.12,1.8-10.51,2.76-16.04,2.76Zm14.79-6.43h0Z"/><path class="cls-1" d="M97.43,133.63c-6.01,0-11.06-4.01-13.62-8.43L39.02,47.64c-1.04-1.8-.41-4.15,1.38-5.18s4.15-.41,5.18,1.38l44.72,77.49c1.24,2.14,4.7,5.74,9.06,4.35,2-.62,4.15,.48,4.77,2.42,.62,2-.48,4.15-2.42,4.77-1.38,.48-2.83,.76-4.29,.76Z"/><path class="cls-1" d="M87.75,93.61c-1.38,0-2.63-.69-3.25-1.87l-12.65-21.77c-1.04-1.8-.41-4.15,1.38-5.18s4.15-.41,5.18,1.38l10.65,18.46,6.77-3.94c1.8-1.04,4.15-.41,5.18,1.38s.41,4.15-1.38,5.18l-10.09,5.81c-.48,.35-1.18,.55-1.8,.55Z"/></g></g></svg>